<mxfile host="app.diagrams.net" agent="Mozilla/5.0 (Windows NT 10.0; Win64; x64) AppleWebKit/537.36 (KHTML, like Gecko) Chrome/129.0.0.0 Safari/537.36" version="24.7.16">
  <diagram id="C5RBs43oDa-KdzZeNtuy" name="Page-1">
    <mxGraphModel dx="1793" dy="965" grid="1" gridSize="10" guides="1" tooltips="1" connect="1" arrows="1" fold="1" page="1" pageScale="1" pageWidth="827" pageHeight="1169" math="0" shadow="0">
      <root>
        <mxCell id="WIyWlLk6GJQsqaUBKTNV-0" />
        <mxCell id="WIyWlLk6GJQsqaUBKTNV-1" parent="WIyWlLk6GJQsqaUBKTNV-0" />
        <mxCell id="WIyWlLk6GJQsqaUBKTNV-2" value="" style="rounded=0;html=1;jettySize=auto;orthogonalLoop=1;fontSize=11;endArrow=block;endFill=0;endSize=8;strokeWidth=1;shadow=0;labelBackgroundColor=none;edgeStyle=orthogonalEdgeStyle;" parent="WIyWlLk6GJQsqaUBKTNV-1" source="WIyWlLk6GJQsqaUBKTNV-3" target="WIyWlLk6GJQsqaUBKTNV-6" edge="1">
          <mxGeometry relative="1" as="geometry">
            <Array as="points">
              <mxPoint x="220" y="260" />
              <mxPoint x="220" y="260" />
            </Array>
          </mxGeometry>
        </mxCell>
        <mxCell id="WIyWlLk6GJQsqaUBKTNV-3" value="Start" style="rounded=1;whiteSpace=wrap;html=1;fontSize=12;glass=0;strokeWidth=1;shadow=0;" parent="WIyWlLk6GJQsqaUBKTNV-1" vertex="1">
          <mxGeometry x="160" y="60" width="120" height="40" as="geometry" />
        </mxCell>
        <mxCell id="WIyWlLk6GJQsqaUBKTNV-6" value="Deep Sleep == TIME_&lt;div&gt;TO_SLEEP&lt;/div&gt;" style="rhombus;whiteSpace=wrap;html=1;shadow=0;fontFamily=Helvetica;fontSize=12;align=center;strokeWidth=1;spacing=6;spacingTop=-4;" parent="WIyWlLk6GJQsqaUBKTNV-1" vertex="1">
          <mxGeometry x="145" y="280" width="150" height="140" as="geometry" />
        </mxCell>
        <mxCell id="GXcp6RzqVgBk8jhXjUhr-2" value="&lt;div&gt;&lt;br&gt;&lt;/div&gt;Read analog inputs:&lt;div&gt;Humidity sensor N&lt;/div&gt;&lt;div&gt;Humidity sensor N&lt;/div&gt;&lt;div&gt;&lt;br&gt;&lt;/div&gt;" style="shape=parallelogram;perimeter=parallelogramPerimeter;whiteSpace=wrap;html=1;fixedSize=1;" vertex="1" parent="WIyWlLk6GJQsqaUBKTNV-1">
          <mxGeometry x="140" y="490" width="180" height="70" as="geometry" />
        </mxCell>
        <mxCell id="GXcp6RzqVgBk8jhXjUhr-5" value="" style="endArrow=none;html=1;rounded=0;exitX=1;exitY=0.5;exitDx=0;exitDy=0;" edge="1" parent="WIyWlLk6GJQsqaUBKTNV-1" source="WIyWlLk6GJQsqaUBKTNV-6">
          <mxGeometry width="50" height="50" relative="1" as="geometry">
            <mxPoint x="475" y="330" as="sourcePoint" />
            <mxPoint x="475" y="250" as="targetPoint" />
            <Array as="points">
              <mxPoint x="475" y="350" />
            </Array>
          </mxGeometry>
        </mxCell>
        <mxCell id="GXcp6RzqVgBk8jhXjUhr-7" value="" style="endArrow=classic;html=1;rounded=0;" edge="1" parent="WIyWlLk6GJQsqaUBKTNV-1">
          <mxGeometry width="50" height="50" relative="1" as="geometry">
            <mxPoint x="475" y="250" as="sourcePoint" />
            <mxPoint x="225" y="250" as="targetPoint" />
          </mxGeometry>
        </mxCell>
        <mxCell id="GXcp6RzqVgBk8jhXjUhr-11" value="Send the data&amp;nbsp;&lt;div&gt;to ESP32 master&lt;/div&gt;" style="shape=parallelogram;perimeter=parallelogramPerimeter;whiteSpace=wrap;html=1;fixedSize=1;" vertex="1" parent="WIyWlLk6GJQsqaUBKTNV-1">
          <mxGeometry x="130" y="630" width="180" height="70" as="geometry" />
        </mxCell>
        <mxCell id="GXcp6RzqVgBk8jhXjUhr-13" value="ESP_SEND == ESP_OK" style="rhombus;whiteSpace=wrap;html=1;shadow=0;fontFamily=Helvetica;fontSize=12;align=center;strokeWidth=1;spacing=6;spacingTop=-4;" vertex="1" parent="WIyWlLk6GJQsqaUBKTNV-1">
          <mxGeometry x="145" y="760" width="150" height="140" as="geometry" />
        </mxCell>
        <mxCell id="GXcp6RzqVgBk8jhXjUhr-24" value="" style="rounded=0;html=1;jettySize=auto;orthogonalLoop=1;fontSize=11;endArrow=block;endFill=0;endSize=8;strokeWidth=1;shadow=0;labelBackgroundColor=none;edgeStyle=orthogonalEdgeStyle;entryX=0.5;entryY=0;entryDx=0;entryDy=0;exitX=0.5;exitY=1;exitDx=0;exitDy=0;" edge="1" parent="WIyWlLk6GJQsqaUBKTNV-1" source="GXcp6RzqVgBk8jhXjUhr-11" target="GXcp6RzqVgBk8jhXjUhr-13">
          <mxGeometry x="-0.7163" y="25" relative="1" as="geometry">
            <mxPoint as="offset" />
            <mxPoint x="220" y="702" as="sourcePoint" />
            <mxPoint x="219.92000000000002" y="755" as="targetPoint" />
            <Array as="points" />
          </mxGeometry>
        </mxCell>
        <mxCell id="GXcp6RzqVgBk8jhXjUhr-25" value="" style="rounded=0;html=1;jettySize=auto;orthogonalLoop=1;fontSize=11;endArrow=block;endFill=0;endSize=8;strokeWidth=1;shadow=0;labelBackgroundColor=none;edgeStyle=orthogonalEdgeStyle;exitX=0.5;exitY=1;exitDx=0;exitDy=0;entryX=0.5;entryY=0;entryDx=0;entryDy=0;" edge="1" parent="WIyWlLk6GJQsqaUBKTNV-1" source="GXcp6RzqVgBk8jhXjUhr-2">
          <mxGeometry x="-0.7163" y="25" relative="1" as="geometry">
            <mxPoint as="offset" />
            <mxPoint x="219.65999999999997" y="575" as="sourcePoint" />
            <mxPoint x="219.65999999999997" y="630" as="targetPoint" />
            <Array as="points">
              <mxPoint x="220" y="560" />
            </Array>
          </mxGeometry>
        </mxCell>
        <mxCell id="GXcp6RzqVgBk8jhXjUhr-26" value="" style="rounded=0;html=1;jettySize=auto;orthogonalLoop=1;fontSize=11;endArrow=block;endFill=0;endSize=8;strokeWidth=1;shadow=0;labelBackgroundColor=none;edgeStyle=orthogonalEdgeStyle;entryX=0.442;entryY=0.006;entryDx=0;entryDy=0;exitX=0.5;exitY=1;exitDx=0;exitDy=0;entryPerimeter=0;" edge="1" parent="WIyWlLk6GJQsqaUBKTNV-1" source="WIyWlLk6GJQsqaUBKTNV-6" target="GXcp6RzqVgBk8jhXjUhr-2">
          <mxGeometry x="-0.7163" y="25" relative="1" as="geometry">
            <mxPoint as="offset" />
            <mxPoint x="219" y="430" as="sourcePoint" />
            <mxPoint x="219.29000000000002" y="485" as="targetPoint" />
            <Array as="points">
              <mxPoint x="220" y="440" />
              <mxPoint x="220" y="440" />
            </Array>
          </mxGeometry>
        </mxCell>
        <mxCell id="GXcp6RzqVgBk8jhXjUhr-27" value="Yes" style="text;html=1;align=center;verticalAlign=middle;resizable=0;points=[];autosize=1;strokeColor=none;fillColor=none;" vertex="1" parent="WIyWlLk6GJQsqaUBKTNV-1">
          <mxGeometry x="225" y="430" width="40" height="30" as="geometry" />
        </mxCell>
        <mxCell id="GXcp6RzqVgBk8jhXjUhr-31" value="" style="rounded=0;html=1;jettySize=auto;orthogonalLoop=1;fontSize=11;endArrow=block;endFill=0;endSize=8;strokeWidth=1;shadow=0;labelBackgroundColor=none;edgeStyle=orthogonalEdgeStyle;exitX=0.5;exitY=1;exitDx=0;exitDy=0;" edge="1" parent="WIyWlLk6GJQsqaUBKTNV-1" source="GXcp6RzqVgBk8jhXjUhr-13">
          <mxGeometry x="-0.7163" y="25" relative="1" as="geometry">
            <mxPoint as="offset" />
            <mxPoint x="219.57999999999998" y="910" as="sourcePoint" />
            <mxPoint x="220" y="230" as="targetPoint" />
            <Array as="points">
              <mxPoint x="220" y="1080" />
              <mxPoint x="40" y="1080" />
            </Array>
          </mxGeometry>
        </mxCell>
        <mxCell id="GXcp6RzqVgBk8jhXjUhr-32" value="No" style="text;html=1;align=center;verticalAlign=middle;resizable=0;points=[];autosize=1;strokeColor=none;fillColor=none;" vertex="1" parent="WIyWlLk6GJQsqaUBKTNV-1">
          <mxGeometry x="280" y="790" width="40" height="30" as="geometry" />
        </mxCell>
        <mxCell id="GXcp6RzqVgBk8jhXjUhr-33" value="" style="rounded=0;html=1;jettySize=auto;orthogonalLoop=1;fontSize=11;endArrow=block;endFill=0;endSize=8;strokeWidth=1;shadow=0;labelBackgroundColor=none;edgeStyle=orthogonalEdgeStyle;exitX=1;exitY=0.5;exitDx=0;exitDy=0;entryX=0;entryY=0.5;entryDx=0;entryDy=0;" edge="1" parent="WIyWlLk6GJQsqaUBKTNV-1" source="GXcp6RzqVgBk8jhXjUhr-13" target="GXcp6RzqVgBk8jhXjUhr-34">
          <mxGeometry x="-0.7163" y="25" relative="1" as="geometry">
            <mxPoint as="offset" />
            <mxPoint x="314.96" y="830" as="sourcePoint" />
            <mxPoint x="375" y="830" as="targetPoint" />
            <Array as="points" />
          </mxGeometry>
        </mxCell>
        <mxCell id="GXcp6RzqVgBk8jhXjUhr-34" value="CommunicationIssue++" style="rounded=0;whiteSpace=wrap;html=1;" vertex="1" parent="WIyWlLk6GJQsqaUBKTNV-1">
          <mxGeometry x="320" y="790" width="145" height="80" as="geometry" />
        </mxCell>
        <mxCell id="GXcp6RzqVgBk8jhXjUhr-36" value="" style="rounded=0;html=1;jettySize=auto;orthogonalLoop=1;fontSize=11;endArrow=block;endFill=0;endSize=8;strokeWidth=1;shadow=0;labelBackgroundColor=none;edgeStyle=orthogonalEdgeStyle;exitX=1;exitY=0.5;exitDx=0;exitDy=0;entryX=0;entryY=0.5;entryDx=0;entryDy=0;" edge="1" parent="WIyWlLk6GJQsqaUBKTNV-1" source="GXcp6RzqVgBk8jhXjUhr-34" target="GXcp6RzqVgBk8jhXjUhr-37">
          <mxGeometry x="-0.7163" y="25" relative="1" as="geometry">
            <mxPoint as="offset" />
            <mxPoint x="555" y="829.58" as="sourcePoint" />
            <mxPoint x="615" y="830" as="targetPoint" />
            <Array as="points" />
          </mxGeometry>
        </mxCell>
        <mxCell id="GXcp6RzqVgBk8jhXjUhr-37" value="CommunicationIssue &amp;gt; MAX_ERRORS" style="rhombus;whiteSpace=wrap;html=1;" vertex="1" parent="WIyWlLk6GJQsqaUBKTNV-1">
          <mxGeometry x="510" y="761.25" width="150" height="137.5" as="geometry" />
        </mxCell>
        <mxCell id="GXcp6RzqVgBk8jhXjUhr-40" value="" style="rounded=0;html=1;jettySize=auto;orthogonalLoop=1;fontSize=11;endArrow=block;endFill=0;endSize=8;strokeWidth=1;shadow=0;labelBackgroundColor=none;edgeStyle=orthogonalEdgeStyle;exitX=0.5;exitY=1;exitDx=0;exitDy=0;entryX=0.5;entryY=0;entryDx=0;entryDy=0;" edge="1" parent="WIyWlLk6GJQsqaUBKTNV-1" source="GXcp6RzqVgBk8jhXjUhr-37" target="GXcp6RzqVgBk8jhXjUhr-44">
          <mxGeometry x="-0.7163" y="25" relative="1" as="geometry">
            <mxPoint as="offset" />
            <mxPoint x="649.5200000000001" y="910" as="sourcePoint" />
            <mxPoint x="650" y="950" as="targetPoint" />
            <Array as="points" />
          </mxGeometry>
        </mxCell>
        <mxCell id="GXcp6RzqVgBk8jhXjUhr-44" value="Display DTC on web server" style="shape=parallelogram;perimeter=parallelogramPerimeter;whiteSpace=wrap;html=1;fixedSize=1;" vertex="1" parent="WIyWlLk6GJQsqaUBKTNV-1">
          <mxGeometry x="500.63" y="930" width="169.37" height="70" as="geometry" />
        </mxCell>
        <mxCell id="GXcp6RzqVgBk8jhXjUhr-45" value="Yes" style="text;html=1;align=center;verticalAlign=middle;resizable=0;points=[];autosize=1;strokeColor=none;fillColor=none;" vertex="1" parent="WIyWlLk6GJQsqaUBKTNV-1">
          <mxGeometry x="220" y="900" width="40" height="30" as="geometry" />
        </mxCell>
        <mxCell id="GXcp6RzqVgBk8jhXjUhr-46" value="" style="rounded=0;html=1;jettySize=auto;orthogonalLoop=1;fontSize=11;endArrow=block;endFill=0;endSize=8;strokeWidth=1;shadow=0;labelBackgroundColor=none;edgeStyle=orthogonalEdgeStyle;exitX=1;exitY=0.5;exitDx=0;exitDy=0;entryX=0;entryY=0.5;entryDx=0;entryDy=0;" edge="1" parent="WIyWlLk6GJQsqaUBKTNV-1" target="GXcp6RzqVgBk8jhXjUhr-47">
          <mxGeometry x="-0.7163" y="25" relative="1" as="geometry">
            <mxPoint as="offset" />
            <mxPoint x="220" y="950" as="sourcePoint" />
            <mxPoint x="300" y="950" as="targetPoint" />
            <Array as="points">
              <mxPoint x="220" y="1040" />
            </Array>
          </mxGeometry>
        </mxCell>
        <mxCell id="GXcp6RzqVgBk8jhXjUhr-47" value="CommunicationIssue --" style="rounded=0;whiteSpace=wrap;html=1;" vertex="1" parent="WIyWlLk6GJQsqaUBKTNV-1">
          <mxGeometry x="295" y="1000" width="145" height="80" as="geometry" />
        </mxCell>
        <mxCell id="GXcp6RzqVgBk8jhXjUhr-48" value="No" style="text;html=1;align=center;verticalAlign=middle;resizable=0;points=[];autosize=1;strokeColor=none;fillColor=none;" vertex="1" parent="WIyWlLk6GJQsqaUBKTNV-1">
          <mxGeometry x="295" y="310" width="40" height="30" as="geometry" />
        </mxCell>
        <mxCell id="GXcp6RzqVgBk8jhXjUhr-49" value="Yes" style="text;html=1;align=center;verticalAlign=middle;resizable=0;points=[];autosize=1;strokeColor=none;fillColor=none;" vertex="1" parent="WIyWlLk6GJQsqaUBKTNV-1">
          <mxGeometry x="580" y="900" width="40" height="30" as="geometry" />
        </mxCell>
        <mxCell id="GXcp6RzqVgBk8jhXjUhr-50" value="No" style="text;html=1;align=center;verticalAlign=middle;resizable=0;points=[];autosize=1;strokeColor=none;fillColor=none;" vertex="1" parent="WIyWlLk6GJQsqaUBKTNV-1">
          <mxGeometry x="530" y="680" width="40" height="30" as="geometry" />
        </mxCell>
        <mxCell id="GXcp6RzqVgBk8jhXjUhr-51" value="" style="rounded=0;html=1;jettySize=auto;orthogonalLoop=1;fontSize=11;endArrow=block;endFill=0;endSize=8;strokeWidth=1;shadow=0;labelBackgroundColor=none;edgeStyle=orthogonalEdgeStyle;exitX=0.5;exitY=0;exitDx=0;exitDy=0;" edge="1" parent="WIyWlLk6GJQsqaUBKTNV-1" source="GXcp6RzqVgBk8jhXjUhr-37">
          <mxGeometry x="-0.7163" y="25" relative="1" as="geometry">
            <mxPoint as="offset" />
            <mxPoint x="650" y="740" as="sourcePoint" />
            <mxPoint x="220" y="230" as="targetPoint" />
            <Array as="points">
              <mxPoint x="585" y="230" />
            </Array>
          </mxGeometry>
        </mxCell>
        <mxCell id="GXcp6RzqVgBk8jhXjUhr-57" value="" style="endArrow=classic;html=1;rounded=0;entryX=0;entryY=0.5;entryDx=0;entryDy=0;entryPerimeter=0;" edge="1" parent="WIyWlLk6GJQsqaUBKTNV-1" target="GXcp6RzqVgBk8jhXjUhr-60">
          <mxGeometry relative="1" as="geometry">
            <mxPoint x="220" y="210" as="sourcePoint" />
            <mxPoint x="610" y="210" as="targetPoint" />
          </mxGeometry>
        </mxCell>
        <mxCell id="GXcp6RzqVgBk8jhXjUhr-58" value="External Interrupt" style="edgeLabel;resizable=0;html=1;;align=center;verticalAlign=middle;" connectable="0" vertex="1" parent="GXcp6RzqVgBk8jhXjUhr-57">
          <mxGeometry relative="1" as="geometry" />
        </mxCell>
        <mxCell id="GXcp6RzqVgBk8jhXjUhr-60" value="Proximity sensor == 1" style="rhombus;whiteSpace=wrap;html=1;" vertex="1" parent="WIyWlLk6GJQsqaUBKTNV-1">
          <mxGeometry x="660" y="150" width="140" height="120" as="geometry" />
        </mxCell>
        <mxCell id="GXcp6RzqVgBk8jhXjUhr-62" value="" style="rounded=0;html=1;jettySize=auto;orthogonalLoop=1;fontSize=11;endArrow=block;endFill=0;endSize=8;strokeWidth=1;shadow=0;labelBackgroundColor=none;edgeStyle=orthogonalEdgeStyle;exitX=0.5;exitY=0;exitDx=0;exitDy=0;" edge="1" parent="WIyWlLk6GJQsqaUBKTNV-1" source="GXcp6RzqVgBk8jhXjUhr-60">
          <mxGeometry x="-0.7163" y="25" relative="1" as="geometry">
            <mxPoint as="offset" />
            <mxPoint x="510.97" y="120.04000000000002" as="sourcePoint" />
            <mxPoint x="220" y="120" as="targetPoint" />
            <Array as="points">
              <mxPoint x="680" y="120" />
              <mxPoint x="501" y="120" />
            </Array>
          </mxGeometry>
        </mxCell>
        <mxCell id="GXcp6RzqVgBk8jhXjUhr-63" value="False" style="text;html=1;align=center;verticalAlign=middle;resizable=0;points=[];autosize=1;strokeColor=none;fillColor=none;" vertex="1" parent="WIyWlLk6GJQsqaUBKTNV-1">
          <mxGeometry x="730" y="120" width="50" height="30" as="geometry" />
        </mxCell>
        <mxCell id="GXcp6RzqVgBk8jhXjUhr-64" value="True" style="text;html=1;align=center;verticalAlign=middle;resizable=0;points=[];autosize=1;strokeColor=none;fillColor=none;" vertex="1" parent="WIyWlLk6GJQsqaUBKTNV-1">
          <mxGeometry x="720" y="270" width="50" height="30" as="geometry" />
        </mxCell>
        <mxCell id="GXcp6RzqVgBk8jhXjUhr-65" value="Send Car Arrived&lt;div&gt;to ESP32 master&lt;/div&gt;" style="shape=parallelogram;perimeter=parallelogramPerimeter;whiteSpace=wrap;html=1;fixedSize=1;" vertex="1" parent="WIyWlLk6GJQsqaUBKTNV-1">
          <mxGeometry x="665" y="350" width="130" height="70" as="geometry" />
        </mxCell>
        <mxCell id="GXcp6RzqVgBk8jhXjUhr-66" value="" style="rounded=0;html=1;jettySize=auto;orthogonalLoop=1;fontSize=11;endArrow=block;endFill=0;endSize=8;strokeWidth=1;shadow=0;labelBackgroundColor=none;edgeStyle=orthogonalEdgeStyle;exitX=0.5;exitY=1;exitDx=0;exitDy=0;entryX=0.5;entryY=0;entryDx=0;entryDy=0;" edge="1" parent="WIyWlLk6GJQsqaUBKTNV-1" source="GXcp6RzqVgBk8jhXjUhr-60" target="GXcp6RzqVgBk8jhXjUhr-65">
          <mxGeometry x="-0.7163" y="25" relative="1" as="geometry">
            <mxPoint as="offset" />
            <mxPoint x="729.58" y="280" as="sourcePoint" />
            <mxPoint x="730" y="340" as="targetPoint" />
            <Array as="points" />
          </mxGeometry>
        </mxCell>
        <mxCell id="GXcp6RzqVgBk8jhXjUhr-67" value="" style="rounded=0;html=1;jettySize=auto;orthogonalLoop=1;fontSize=11;endArrow=block;endFill=0;endSize=8;strokeWidth=1;shadow=0;labelBackgroundColor=none;edgeStyle=orthogonalEdgeStyle;exitX=0.5;exitY=1;exitDx=0;exitDy=0;" edge="1" parent="WIyWlLk6GJQsqaUBKTNV-1" source="GXcp6RzqVgBk8jhXjUhr-65">
          <mxGeometry x="-0.7163" y="25" relative="1" as="geometry">
            <mxPoint as="offset" />
            <mxPoint x="729.29" y="440" as="sourcePoint" />
            <mxPoint x="620" y="210" as="targetPoint" />
            <Array as="points">
              <mxPoint x="730" y="490" />
              <mxPoint x="620" y="490" />
            </Array>
          </mxGeometry>
        </mxCell>
      </root>
    </mxGraphModel>
  </diagram>
</mxfile>
